<?xml version="1.0" encoding="UTF-8"?>
<svg id="_圖層_1" data-name="圖層 1" xmlns="http://www.w3.org/2000/svg" viewBox="0 0 150 150">
  <defs>
    <style>
      .cls-1 {
        fill: #fff;
      }
    </style>
  </defs>
  <path class="cls-1" d="m96.34,16.53c-22.04-22.04-57.77-22.04-79.81,0-22.04,22.04-22.04,57.77,0,79.81,21.04,21.04,54.55,21.99,76.73,2.86l3.13,3.13.61,6.7,40.96,40.96,12.04-12.04-40.96-40.96-6.64-.67-3.13-3.13c19.07-22.17,18.09-55.64-2.92-76.66ZM22.02,90.86c-18.98-18.98-18.98-49.86,0-68.84,18.98-18.98,49.86-18.98,68.84,0,18.98,18.98,18.98,49.86,0,68.84-18.98,18.98-49.86,18.98-68.84,0Zm28.21-.28v-27.93h-27.93v-12.41h27.93v-27.93h12.41v27.93h27.93v12.41h-27.93v27.93s-12.41,0-12.41,0Z"/>
</svg>