<?xml version="1.0" encoding="UTF-8"?>
<svg id="_圖層_1" data-name="圖層 1" xmlns="http://www.w3.org/2000/svg" viewBox="0 0 188.83 54.17">
  <defs>
    <style>
      .cls-1 {
        fill: #b3b3b3;
      }
    </style>
  </defs>
  <path class="cls-1" d="m136.22,40.31h-4.08c-.2-5.14-2.88-8.41-13.22-10.98-10.3-2.59-14.79-5.93-14.85-12.91h4.07c.13,5.14,3.41,7.21,12.25,9.41,13.49,3.37,15.74,8.74,15.83,14.48Zm-28.45-31.01c-.01-3.09.49-3.59,3.52-3.51l17.62.02c3.76,0,3.51.65,3.51,3.53v3.23s3.78,0,3.78,0l.03-7.04c0-1.95-1.57-3.53-3.51-3.53h-25.23c-1.94,0-3.51,1.57-3.51,3.51v7.06s3.81,0,3.81,0v-3.27Zm24.64,37.57c.01,3.09-.49,3.59-3.52,3.51l-17.62-.02c-3.76,0-3.51-.65-3.51-3.53v-2.69s-3.78,0-3.78,0l-.03,6.51c0,1.95,1.57,3.53,3.51,3.53h25.23c1.94,0,3.51-1.57,3.51-3.51v-6.52s-3.81,0-3.81,0v2.73Zm40.6-21.04c-8.84-2.2-12.12-4.27-12.25-9.41h-4.07c.05,6.98,4.54,10.33,14.85,12.91,10.35,2.57,13.03,5.83,13.22,10.98h4.08c-.09-5.74-2.33-11.11-15.83-14.48Zm-12.62-16.53c-.01-3.09.49-3.59,3.52-3.51l17.62.02c3.76,0,3.51.65,3.51,3.53v3.23s3.78,0,3.78,0l.03-7.04c0-1.95-1.57-3.53-3.51-3.53h-25.23c-1.94,0-3.51,1.57-3.51,3.51v7.06s3.81,0,3.81,0v-3.27Zm24.64,37.57c.01,3.09-.49,3.59-3.52,3.51l-17.62-.02c-3.76,0-3.51-.65-3.51-3.53v-2.69s-3.78,0-3.78,0l-.03,6.51c0,1.95,1.57,3.53,3.51,3.53h25.23c1.94,0,3.51-1.57,3.51-3.51v-6.52s-3.81,0-3.81,0v2.73ZM3.84,0H.05s-.05,49.67-.05,49.67l3.79-3.79L3.84,0Zm2,48.08l-3.5,3.5,29.62.03.71-3.51-26.82-.03Zm40.17,6.05h3.75s.29-51.58.29-51.58h-3.98s-.06,51.58-.06,51.58ZM84.32,2.55h-3.98s.04,35.78.04,35.78c0,6.7-5.41,12.13-12.11,12.14l-14.71.02v3.68l16.36-.02c7.98,0,14.45-6.49,14.44-14.47l-.04-37.13Z"/>
</svg>